<svg xmlns="http://www.w3.org/2000/svg" width="1024" height="1024" viewBox="0 0 1024 1024">
  <path d="M 718.65 820.72 L 663.54 820.72 L 653.52 818.21 L 640.37 807.57 L 631.60 786.27 L 624.72 779.39 L 399.28 779.39 L 389.89 787.53 L 381.12 808.82 L 375.49 814.45 L 359.21 820.72 L 285.32 819.46 L 250.25 815.71 L 216.43 805.69 L 202.03 793.79 L 195.77 780.01 L 194.52 752.46 L 209.55 593.41 L 165.09 591.53 L 135.03 586.52 L 121.88 577.12 L 119.37 560.84 L 253.38 326.65 L 253.38 218.94 L 261.52 207.04 L 272.79 203.28 L 409.30 203.28 L 418.07 205.79 L 427.46 217.69 L 429.34 269.66 L 474.43 265.90 L 585.89 265.90 L 649.76 273.42 L 688.59 283.44 L 716.14 295.96 L 729.92 305.98 L 749.33 326.65 L 895.86 547.07 L 903.37 559.59 L 904.63 569.61 L 897.74 581.51 L 883.96 587.77 L 862.67 591.53 L 814.45 593.41 L 829.48 752.46 L 829.48 773.75 L 821.97 793.79 L 811.32 803.18 L 791.28 811.95 L 767.49 816.96 L 718.65 820.72 Z M 388.64 535.80 L 409.30 528.91 L 423.71 514.50 L 431.22 496.97 L 431.22 478.19 L 422.45 459.40 L 410.56 447.50 L 398.03 441.24 L 379.25 438.73 L 355.45 447.50 L 342.30 460.65 L 336.04 474.43 L 334.79 494.47 L 341.05 512.00 L 355.45 527.65 L 371.73 535.17 L 388.64 535.80 Z M 646.63 539.55 L 663.54 533.92 L 679.19 519.51 L 686.71 503.23 L 687.96 488.20 L 682.95 470.67 L 668.55 453.76 L 654.77 446.25 L 635.99 443.74 L 613.44 451.26 L 601.55 461.90 L 591.53 481.94 L 591.53 501.98 L 597.79 517.01 L 610.94 531.41 L 632.23 540.18 L 646.63 539.55 Z " fill="#090909" fill-rule="evenodd"/>
</svg>